<?xml version="1.0" encoding="UTF-8"?>
<svg id="Capa_1" data-name="Capa 1" xmlns="http://www.w3.org/2000/svg" viewBox="0 0 144 30">
  <defs>
    <style>
      .cls-1 {
        fill: #fc8d08;
        stroke-width: 0px;
      }
    </style>
  </defs>
  <path class="cls-1" d="M1.38,3.59h17.32v5.97h-2.69v-1.19c0-.24-.02-.5-.06-.75s-.11-.52-.19-.77-.21-.46-.38-.62-.35-.24-.56-.24h-2.39v13.73h2.39v2.39H5.26v-2.39h2.39V5.98h-2.39c-.21,0-.4.08-.56.24s-.29.37-.38.62-.15.51-.19.77-.06.51-.06.75v1.19H1.38V3.59Z"/>
  <path class="cls-1" d="M31.68,13.11v6.61h1.49v2.39h-4.65l-.66-1.55c-.51.73-1.1,1.22-1.77,1.49s-1.6.4-2.8.4c-.62,0-1.2-.11-1.74-.32s-.99-.51-1.37-.88-.67-.82-.88-1.34-.32-1.08-.32-1.68c0-1.03.4-1.88,1.21-2.56s1.84-1.02,3.09-1.02c1.01,0,1.85.1,2.51.29s1.23.5,1.7.91v-3.16c0-.45-.06-.82-.18-1.12s-.3-.53-.55-.69-.52-.27-.82-.34-.67-.1-1.09-.1c-.34,0-.64.07-.92.22.15.32.23.66.23,1.02,0,.66-.23,1.23-.7,1.69s-1.03.7-1.69.7-1.23-.23-1.69-.7-.7-1.03-.7-1.69c0-.34.07-.66.2-.96s.31-.56.55-.78c.2-.21.41-.4.62-.56s.48-.33.81-.5.68-.3,1.06-.41.84-.2,1.38-.26,1.12-.1,1.76-.1c.83,0,1.6.12,2.33.37s1.35.58,1.88,1.02.94.97,1.25,1.6.46,1.32.46,2.06ZM27.5,18.79v-1.03c-.31-.29-.66-.54-1.04-.74s-.74-.3-1.07-.3c-.71,0-1.2.12-1.49.35s-.43.62-.43,1.15c0,.63.12,1.1.37,1.4s.71.45,1.39.45c.38,0,.78-.12,1.2-.37s.78-.55,1.08-.9Z"/>
  <path class="cls-1" d="M38.91,19.72c.28.19.71.29,1.28.29.51,0,.93-.03,1.25-.09s.56-.16.73-.29.27-.29.33-.46.08-.38.08-.65c0-.32-.08-.59-.25-.82s-.4-.41-.69-.55-.62-.26-.99-.37-.77-.21-1.18-.31-.83-.2-1.24-.32-.81-.27-1.18-.46-.7-.42-.99-.68-.52-.6-.69-1.02-.25-.9-.25-1.44c0-.5.06-.95.18-1.36s.28-.76.48-1.04.45-.54.75-.75.62-.39.95-.52.7-.23,1.12-.31.82-.13,1.21-.16.81-.04,1.27-.04c1,0,1.86.13,2.61.38s1.33.59,1.76,1.02c.23.19.41.43.53.71s.19.57.19.88c0,.58-.2,1.07-.61,1.48s-.9.61-1.48.61-1.07-.2-1.48-.61-.61-.9-.61-1.48c0-.21.03-.41.09-.6-.28-.19-.71-.29-1.28-.29-.7,0-1.23.08-1.57.25s-.52.48-.52.94c0,.29.07.54.22.77s.34.4.59.54.54.28.87.4.68.23,1.06.32.76.19,1.15.32.78.25,1.15.38.73.3,1.06.51.62.45.87.71.45.59.59.99.22.84.22,1.32c0,.7-.12,1.31-.35,1.84s-.54.96-.93,1.29-.86.6-1.44.8-1.17.35-1.78.43-1.3.12-2.06.12c-1.53,0-2.76-.29-3.69-.87s-1.4-1.39-1.4-2.41c0-.58.2-1.07.61-1.48s.9-.61,1.48-.61,1.07.2,1.48.61.61.9.61,1.48c0,.21-.03.41-.09.6Z"/>
  <path class="cls-1" d="M52.13,5.38h1.49v2.99h4.18v2.39h-4.18v7.76c0,.34.1.62.29.85s.49.34.91.34c.46,0,.86-.15,1.18-.46s.53-.75.61-1.33l1.79.3c-.07.58-.22,1.12-.43,1.62s-.49.94-.82,1.32-.76.69-1.26.91-1.06.33-1.67.33c-1.49,0-2.66-.35-3.5-1.04s-1.27-1.64-1.27-2.84v-7.76h-1.49v-2.39h.3c.77,0,1.44-.22,2.03-.66s1.2-1.21,1.85-2.33Z"/>
  <path class="cls-1" d="M59.99,26.71c-.26-.4-.4-.84-.4-1.32,0-.66.23-1.23.7-1.69s1.03-.7,1.69-.7,1.23.23,1.69.7.7,1.03.7,1.69c0,.14-.01.27-.04.4.02,0,.04,0,.05,0,.36,0,.8-.59,1.31-1.78l.56-1.28-5.26-11.98h-1.4v-2.39h8.36v2.39h-2.46l2.37,5.37c.3.71.52,1.3.66,1.79.13-.49.35-1.08.66-1.79l2.36-5.37h-2.09v-2.39h6.27v2.39h-1.58l-4.99,11.35c-.26.59-.49,1.09-.7,1.52s-.44.86-.69,1.3-.5.81-.74,1.12-.51.59-.81.87-.61.49-.94.65-.68.29-1.07.38-.82.14-1.27.14c-.42,0-.8-.03-1.12-.1s-.6-.17-.82-.3-.41-.27-.56-.43-.29-.33-.43-.54Z"/>
  <path class="cls-1" d="M85.57,22.1h-9.55v-2.39h2.39V5.98h-2.39v-2.39h9.55c1.07,0,2.08.12,3.03.35s1.79.56,2.53.99,1.39.92,1.98,1.5,1.07,1.21,1.45,1.9.67,1.41.87,2.18.3,1.55.3,2.35-.1,1.58-.3,2.35-.49,1.49-.87,2.18-.86,1.32-1.45,1.9-1.24,1.08-1.98,1.5-1.58.75-2.53.99-1.96.35-3.03.35ZM85.57,19.71c.78,0,1.47-.17,2.08-.52s1.11-.83,1.5-1.44.69-1.34.89-2.17.3-1.74.3-2.74c0-.8-.06-1.54-.18-2.22s-.31-1.32-.56-1.89-.57-1.06-.94-1.47-.82-.72-1.35-.94-1.11-.34-1.75-.34h-2.39v13.73h2.39Z"/>
  <path class="cls-1" d="M109.9,13.11v6.61h1.49v2.39h-4.65l-.66-1.55c-.51.73-1.1,1.22-1.77,1.49s-1.6.4-2.8.4c-.62,0-1.2-.11-1.74-.32s-.99-.51-1.37-.88-.67-.82-.88-1.34-.32-1.08-.32-1.68c0-1.03.4-1.88,1.21-2.56s1.84-1.02,3.09-1.02c1.01,0,1.85.1,2.51.29s1.23.5,1.7.91v-3.16c0-.45-.06-.82-.18-1.12s-.3-.53-.55-.69-.52-.27-.82-.34-.67-.1-1.09-.1c-.34,0-.64.07-.92.22.15.32.23.66.23,1.02,0,.66-.23,1.23-.7,1.69s-1.03.7-1.69.7-1.23-.23-1.69-.7-.7-1.03-.7-1.69c0-.34.07-.66.2-.96s.31-.56.55-.78c.2-.21.41-.4.62-.56s.48-.33.81-.5.68-.3,1.06-.41.84-.2,1.38-.26,1.12-.1,1.76-.1c.83,0,1.6.12,2.33.37s1.35.58,1.88,1.02.94.97,1.25,1.6.46,1.32.46,2.06ZM105.72,18.79v-1.03c-.31-.29-.66-.54-1.04-.74s-.74-.3-1.07-.3c-.71,0-1.2.12-1.49.35s-.43.62-.43,1.15c0,.63.12,1.1.37,1.4s.71.45,1.39.45c.38,0,.78-.12,1.2-.37s.78-.55,1.08-.9Z"/>
  <path class="cls-1" d="M117.13,19.72c.28.19.71.29,1.28.29.51,0,.93-.03,1.25-.09s.56-.16.73-.29.27-.29.33-.46.08-.38.08-.65c0-.32-.08-.59-.25-.82s-.4-.41-.69-.55-.62-.26-.99-.37-.77-.21-1.18-.31-.83-.2-1.24-.32-.81-.27-1.18-.46-.7-.42-.99-.68-.52-.6-.69-1.02-.25-.9-.25-1.44c0-.5.06-.95.18-1.36s.28-.76.48-1.04.45-.54.75-.75.62-.39.95-.52.7-.23,1.12-.31.82-.13,1.21-.16.81-.04,1.27-.04c1,0,1.86.13,2.61.38s1.33.59,1.76,1.02c.23.19.41.43.53.71s.19.57.19.88c0,.58-.2,1.07-.61,1.48s-.9.61-1.48.61-1.07-.2-1.48-.61-.61-.9-.61-1.48c0-.21.03-.41.09-.6-.28-.19-.71-.29-1.28-.29-.7,0-1.23.08-1.57.25s-.52.48-.52.94c0,.29.07.54.22.77s.34.4.59.54.54.28.87.4.68.23,1.06.32.76.19,1.15.32.78.25,1.15.38.73.3,1.06.51.62.45.87.71.45.59.59.99.22.84.22,1.32c0,.7-.12,1.31-.35,1.84s-.54.96-.93,1.29-.86.6-1.44.8-1.17.35-1.78.43-1.3.12-2.06.12c-1.53,0-2.76-.29-3.69-.87s-1.4-1.39-1.4-2.41c0-.58.2-1.07.61-1.48s.9-.61,1.48-.61,1.07.2,1.48.61.61.9.61,1.48c0,.21-.03.41-.09.6Z"/>
  <path class="cls-1" d="M136.03,8.07c.7,0,1.31.09,1.83.28s.95.45,1.28.78.6.75.81,1.26.35,1.06.43,1.64.12,1.25.12,2v5.67h1.49v2.39h-7.17v-2.39h1.49v-5.97c0-.79-.07-1.4-.21-1.84s-.35-.74-.61-.9-.63-.25-1.09-.25c-.42,0-.86.18-1.3.54s-.87.87-1.27,1.52v6.89h1.49v2.39h-7.17v-2.39h1.49V5.98h-1.49v-2.39h5.67v6.81c.18-.33.39-.63.63-.9s.53-.51.87-.74.73-.39,1.18-.52.95-.18,1.5-.18Z"/>
</svg>